<?xml version="1.0" standalone="no"?><svg xmlns="http://www.w3.org/2000/svg" viewBox="0 0 1440 320"><path fill="#ffffff" fill-opacity="1" d="M0,96L30,112C60,128,120,160,180,144C240,128,300,64,360,69.3C420,75,480,149,540,181.3C600,213,660,203,720,186.7C780,171,840,149,900,128C960,107,1020,85,1080,101.3C1140,117,1200,171,1260,192C1320,213,1380,203,1410,197.3L1440,192L1440,320L1410,320C1380,320,1320,320,1260,320C1200,320,1140,320,1080,320C1020,320,960,320,900,320C840,320,780,320,720,320C660,320,600,320,540,320C480,320,420,320,360,320C300,320,240,320,180,320C120,320,60,320,30,320L0,320Z"></path></svg>